# xmcd
#
# Track frame offsets: 
#        150
#        13477
#        27154
#        41961
#        54078
#        67143
#        81275
#        95744
#        110036
#        125193
#        139367
#        151653
#        164437
#        177554
#        189195
#        201865
#        214717
#        229334
#        241756
#        256288
#
# Disc length: 3585 seconds
#
# Revision: 2
# Processed by: cddbd v1.5.2PL0 Copyright (c) Steve Scherf et al.
# Submitted via: ExactAudioCopy v1.0b5
#
DISCID=290dff14
DTITLE=Various Artist - Country, Bluegrass and Mountain Music CD3
DYEAR=2002
DGENRE=Country
TTITLE0=The Sons Of The Pioneers - Cigarettes, Whisky And Wild Women
TTITLE1=Merle Travis - So Round, So Firm, So Fully Packed!
TTITLE2=Vernon Dalhart - The Runaway Train
TTITLE3=Hank Williams - I'll Be A Bachelor 'Til I Die
TTITLE4=Gene Autry - Dear Old Western Skies
TTITLE5=Tex Ritter - Get Along Little Dogies
TTITLE6=Marc Williams - The Little Old Sod Shanty On My Chain
TTITLE7=Patsy Montana - I Want To Be A Cowboy's Sweetheart
TTITLE8=The Carter Family - My Clinch Mountain Home
TTITLE9=The Carter Family - Foggy Mountain Top
TTITLE10=The Sons Of The Pioneers - Tumbilng Tumbleweeds
TTITLE11=Hank Williams - Rootie Tootie
TTITLE12=Bob Wills - Take Me Back To Tulsa
TTITLE13=Red Foley - M-I-S-S-I-S-S-I-P-P-I
TTITLE14=Roy Atcuff - The Streamlined Cannon Ball
TTITLE15=Montana Slim - The Golden Lariat
TTITLE16=Jimmie Rodgers - The Brakeman's Blues
TTITLE17=Ted Daffan - Born To Lose
TTITLE18=Carson Robinson - The West Ain't What It Used To Be
TTITLE19=Merle Travis - What A Shame
EXTD=
EXTT0=
EXTT1=
EXTT2=
EXTT3=
EXTT4=
EXTT5=
EXTT6=
EXTT7=
EXTT8=
EXTT9=
EXTT10=
EXTT11=
EXTT12=
EXTT13=
EXTT14=
EXTT15=
EXTT16=
EXTT17=
EXTT18=
EXTT19=
PLAYORDER=
